<?xml version="1.0" encoding="UTF-8"?>
<svg width="25px" height="25px" viewBox="0 0 25 25" version="1.1" xmlns="http://www.w3.org/2000/svg" xmlns:xlink="http://www.w3.org/1999/xlink">
    <!-- Generator: Sketch 47.1 (45422) - http://www.bohemiancoding.com/sketch -->
    <title>Gear</title>
    <desc>Created with Sketch.</desc>
    <defs></defs>
    <g id="Dashboard" stroke="none" stroke-width="1" fill="none" fill-rule="evenodd">
        <g id="Desktop-HD" transform="translate(-1384.000000, -22.000000)" fill="#000000">
            <g id="Header">
                <g id="Header-Inner" transform="translate(30.000000, 15.000000)">
                    <path d="M1379,22.753743 C1378.6508,24.1138812 1378.08294,25.3870734 1377.33586,26.5341247 C1376.82062,26.1872988 1376.19914,25.9847248 1375.53008,25.9847248 C1373.74894,25.9847248 1372.30505,27.4203445 1372.30505,29.1912711 C1372.30505,29.7776683 1372.46336,30.3273012 1372.73981,30.8002224 C1371.79322,31.3213528 1370.77375,31.7275887 1369.70045,32 C1369.50341,30.4167936 1368.14565,29.1912711 1366.5,29.1912711 C1364.85435,29.1912711 1363.49659,30.4167936 1363.29955,32 C1362.1028,31.6962568 1360.97299,31.2261344 1359.93648,30.615875 C1360.40974,30.0578648 1360.69495,29.3370291 1360.69495,28.5499619 C1360.69495,26.7790352 1359.25106,25.3434155 1357.46992,25.3434155 C1356.67832,25.3434155 1355.95333,25.6269866 1355.3921,26.0975349 C1354.77833,25.066974 1354.30549,23.9436294 1354,22.753743 C1355.59233,22.5578346 1356.82492,21.2078514 1356.82492,19.5716321 C1356.82492,17.9354128 1355.59233,16.5854296 1354,16.3895211 C1354.3225,15.1333932 1354.83149,13.951422 1355.49592,12.8744808 C1355.90116,13.056949 1356.35111,13.1585394 1356.82492,13.1585394 C1358.60605,13.1585394 1360.04994,11.7229197 1360.04994,9.95199303 C1360.04994,9.48089943 1359.94777,9.03353354 1359.76425,8.63060802 C1361.02587,7.86113717 1362.43081,7.30133873 1363.92999,7 C1364.06048,8.6519237 1365.45004,9.95199303 1367.14501,9.95199303 C1368.73001,9.95199303 1370.04795,8.81513779 1370.31899,7.31680764 C1371.45537,7.66649903 1372.52458,8.1681474 1373.50262,8.79787133 C1373.1538,9.31015329 1372.95006,9.92807095 1372.95006,10.5933023 C1372.95006,12.364229 1374.39395,13.7998487 1376.17508,13.7998487 C1376.76486,13.7998487 1377.31766,13.6424424 1377.79331,13.3675775 C1378.31744,14.3087501 1378.72602,15.3223747 1379,16.3895211 C1377.40767,16.5854296 1376.17508,17.9354128 1376.17508,19.5716321 C1376.17508,21.2078514 1377.40767,22.5578346 1379,22.753743 Z M1366.5,25.9847248 C1370.06227,25.9847248 1372.95006,23.1134854 1372.95006,19.5716321 C1372.95006,16.0297788 1370.06227,13.1585394 1366.5,13.1585394 C1362.93773,13.1585394 1360.04994,16.0297788 1360.04994,19.5716321 C1360.04994,23.1134854 1362.93773,25.9847248 1366.5,25.9847248 Z" id="Gear"></path>
                </g>
            </g>
        </g>
    </g>
</svg>